<svg id="svg" xmlns="http://www.w3.org/2000/svg" xmlns:xlink="http://www.w3.org/1999/xlink" width="400" height="400" viewBox="0, 0, 400,400"><g id="svgg"><path id="path0" d="M175.000 1.185 C 11.863 21.386,-58.381 221.347,56.207 339.352 C 164.692 451.073,354.921 401.193,393.831 250.824 C 429.325 113.659,315.483 -16.211,175.000 1.185 M225.735 23.876 C 371.216 45.893,429.104 224.289,324.131 327.105 C 224.817 424.378,56.224 374.104,26.262 238.281 C -0.398 117.429,103.807 5.424,225.735 23.876 M188.672 44.221 C 118.235 51.494,64.588 97.027,48.479 163.210 C 20.912 276.461,123.539 379.088,236.790 351.521 C 354.923 322.767,396.151 175.769,310.191 89.809 C 278.389 58.007,230.208 39.932,188.672 44.221 M102.482 171.838 C 106.598 173.071,112.547 177.282,114.675 180.469 C 117.525 184.738,117.969 184.273,117.969 177.018 L 117.969 170.313 138.281 170.313 L 158.594 170.313 158.594 175.000 L 158.594 179.688 143.750 179.688 L 128.906 179.688 128.906 187.500 L 128.906 195.313 141.797 195.313 L 154.688 195.313 154.688 199.609 L 154.688 203.906 141.797 203.906 L 128.906 203.906 128.906 212.891 L 128.906 221.875 142.884 221.875 L 156.861 221.875 159.685 213.867 C 161.238 209.463,165.244 197.949,168.587 188.281 L 174.664 170.703 180.496 170.480 L 186.328 170.256 195.227 195.870 C 200.121 209.958,204.428 221.818,204.797 222.227 C 205.173 222.642,205.469 211.383,205.469 196.641 L 205.469 170.313 210.938 170.313 L 216.406 170.313 216.406 196.094 L 216.406 221.875 229.688 221.875 L 242.969 221.875 242.969 196.094 L 242.969 170.313 273.242 170.318 C 312.863 170.326,318.736 171.064,323.986 176.692 C 330.106 183.253,329.100 194.139,321.936 198.880 C 318.065 201.442,318.069 201.183,321.864 203.120 C 326.492 205.480,328.058 209.180,328.805 219.517 C 329.162 224.459,329.844 228.544,330.431 229.251 C 331.331 230.336,330.793 230.469,325.514 230.469 C 318.235 230.469,318.013 230.178,317.398 219.868 C 316.691 208.034,314.657 206.263,301.758 206.254 L 295.313 206.250 295.313 218.359 L 295.313 230.469 245.443 230.469 L 195.574 230.469 193.670 224.023 L 191.765 217.578 180.558 217.578 L 169.351 217.578 167.360 224.023 L 165.368 230.469 141.669 230.469 L 117.969 230.469 117.969 223.438 C 117.969 215.712,117.514 215.009,115.245 219.223 C 110.672 227.715,103.583 230.469,86.299 230.469 L 73.438 230.469 73.438 200.283 L 73.438 170.096 86.523 170.537 C 93.721 170.779,100.902 171.364,102.482 171.838 M84.375 200.781 L 84.375 221.875 90.650 221.875 C 104.886 221.875,108.145 217.350,107.680 198.229 C 107.306 182.832,104.592 179.688,91.681 179.688 L 84.375 179.688 84.375 200.781 M254.688 187.500 L 254.688 195.313 266.797 195.313 L 278.906 195.313 278.906 199.609 L 278.906 203.906 266.797 203.906 L 254.688 203.906 254.688 212.891 L 254.688 221.875 269.141 221.875 L 283.594 221.875 283.594 200.781 L 283.594 179.688 269.141 179.688 L 254.688 179.688 254.688 187.500 M295.313 188.672 L 295.313 197.656 301.978 197.656 C 312.922 197.656,316.339 195.464,316.381 188.416 C 316.424 181.313,314.039 179.688,303.576 179.688 L 295.313 179.688 295.313 188.672 M176.305 195.508 C 174.288 202.061,172.641 207.686,172.647 208.008 C 172.652 208.330,176.172 208.594,180.469 208.594 C 189.307 208.594,188.981 208.937,186.792 201.953 C 185.984 199.375,184.386 194.189,183.239 190.430 C 180.544 181.590,180.604 181.546,176.305 195.508 " stroke="none" fill="#000000" fill-rule="evenodd"></path></g></svg>